<?xml version="1.0" encoding="UTF-8" standalone="no"?>
<!DOCTYPE svg PUBLIC "-//W3C//DTD SVG 1.1//EN" "http://www.w3.org/Graphics/SVG/1.1/DTD/svg11.dtd">
<svg width="100%" height="100%" viewBox="0 0 181 42" version="1.1" xmlns="http://www.w3.org/2000/svg" xmlns:xlink="http://www.w3.org/1999/xlink" xml:space="preserve" xmlns:serif="http://www.serif.com/" style="fill-rule:evenodd;clip-rule:evenodd;stroke-linejoin:round;stroke-miterlimit:1.41421;">
    <rect x="0" y="0" width="42" height="42" style="fill:url(#_Linear1);"/>
    <g id="C" transform="matrix(1,0,0,1,-2.08,-1.71)">
        <path d="M22.89,2.78L22.89,7.89C22.89,8.234 22.749,8.563 22.5,8.8L10.2,20.52L13.6,20.52C13.973,20.535 14.336,20.394 14.6,20.13L22.88,11.87C23.397,11.384 24.213,11.384 24.73,11.87L32.73,19.23L26.1,19.23L23.73,17L19.13,21.75C18.651,22.231 18.651,23.019 19.13,23.5L23.73,28.2L26.04,26.2L32.72,26.2L24.66,33.2C24.147,33.658 23.363,33.658 22.85,33.2L14.54,25.27C14.294,25.031 13.963,24.898 13.62,24.9L10.2,24.9L22.48,36.24C22.74,36.475 22.888,36.81 22.89,37.16L22.89,42.63L4.55,24.11C3.977,23.819 3.614,23.228 3.614,22.585C3.614,21.979 3.937,21.416 4.46,21.11L22.89,2.78Z" style="fill:white;fill-rule:nonzero;"/>
    </g>
    <g transform="matrix(1,0,0,1,-2.08,-1.71)">
        <path d="M25.05,2.78L25.05,7.59C25.048,8.111 25.241,8.614 25.59,9L36.68,21.09C37.406,21.872 37.406,23.098 36.68,23.88L25.61,35.88C25.258,36.261 25.061,36.761 25.06,37.28L25.06,42.38L41.74,24.09C42.43,23.31 42.86,21.75 42.17,20.97L25.05,2.78Z" style="fill:white;fill-rule:nonzero;"/>
    </g>
    <g transform="matrix(1.23322,0,0,1.23322,45.2858,28.1096)">
        <g>
            <g>
                <text x="0px" y="0px" style="font-family:'TwCenMT-Bold', 'Tw Cen MT', sans-serif;font-weight:700;font-size:23px;fill:rgb(0,186,239);">Conqu</text>
                <text x="62.172px" y="0px" style="font-family:'TwCenMT-Bold', 'Tw Cen MT', sans-serif;font-weight:700;font-size:23px;fill:white;">Er<tspan x="80.848px 88.047px " y="0px 0px ">ro</tspan>r</text>
            </g>
        </g>
    </g>
    <defs>
        <linearGradient id="_Linear1" x1="0" y1="0" x2="1" y2="0" gradientUnits="userSpaceOnUse" gradientTransform="matrix(19.08,-23.63,23.63,19.08,11.47,32.8)"><stop offset="0" style="stop-color:rgb(17,71,120);stop-opacity:1"/><stop offset="0.14" style="stop-color:rgb(17,71,120);stop-opacity:1"/><stop offset="0.35" style="stop-color:rgb(11,104,159);stop-opacity:1"/><stop offset="0.62" style="stop-color:rgb(5,142,202);stop-opacity:1"/><stop offset="0.83" style="stop-color:rgb(1,165,229);stop-opacity:1"/><stop offset="0.96" style="stop-color:rgb(0,174,239);stop-opacity:1"/><stop offset="1" style="stop-color:rgb(0,174,239);stop-opacity:1"/></linearGradient>
    </defs>
</svg>
