<?xml version="1.0" encoding="UTF-8" standalone="no"?>
<!DOCTYPE svg PUBLIC "-//W3C//DTD SVG 1.1//EN" "http://www.w3.org/Graphics/SVG/1.1/DTD/svg11.dtd">
<svg width="100%" height="100%" viewBox="0 0 179 43" version="1.1" xmlns="http://www.w3.org/2000/svg" xmlns:xlink="http://www.w3.org/1999/xlink" xml:space="preserve" xmlns:serif="http://www.serif.com/" style="fill-rule:evenodd;clip-rule:evenodd;stroke-linejoin:round;stroke-miterlimit:1.41421;">
    <g id="C" transform="matrix(1,0,0,1,-4.13,-1.5)">
        <path d="M24.56,1.5L24.56,7C24.57,7.376 24.421,7.739 24.15,8L11.15,20.5L14.75,20.5C15.124,20.502 15.484,20.354 15.75,20.09L24.54,11.29C25.092,10.75 25.988,10.75 26.54,11.29L35,19L28,19L25.48,16.62L20.57,21.7C20.062,22.211 20.062,23.049 20.57,23.56L25.46,28.56L27.91,26.42L35,26.42L26.44,33.86C25.898,34.351 25.062,34.351 24.52,33.86L15.7,25.37C15.435,25.107 15.074,24.962 14.7,24.97L11.1,24.97L24.1,37.18C24.379,37.437 24.536,37.801 24.53,38.18L24.53,44L5.09,24.25C4.499,23.928 4.13,23.307 4.13,22.634C4.13,21.998 4.459,21.405 5,21.07L24.56,1.5Z" style="fill:white;fill-rule:nonzero;"/>
    </g>
    <g transform="matrix(1,0,0,1,-4.13,-1.5)">
        <path d="M26.61,1.5L26.61,6.66C26.613,7.219 26.836,7.754 27.23,8.15L39.94,21.15C40.34,21.546 40.566,22.087 40.566,22.65C40.566,23.213 40.34,23.754 39.94,24.15L27.24,37C26.842,37.398 26.615,37.937 26.61,38.5L26.61,43.96L45.74,24.34C46.52,23.51 47.02,21.84 46.23,21.01L26.61,1.5Z" style="fill:white;fill-rule:nonzero;"/>
    </g>
    <g transform="matrix(1.02244,0,0,1.02244,42.7263,27.1506)">
        <g>
            <text x="0px" y="0px" style="font-family:'Arial-BoldMT', 'Arial', sans-serif;font-weight:700;font-size:23px;fill:white;">ConquError</text>
        </g>
    </g>
</svg>
