<svg id="Layer_1" data-name="Layer 1" xmlns="http://www.w3.org/2000/svg" xmlns:xlink="http://www.w3.org/1999/xlink" viewBox="0 0 44 44"><defs><style>.cls-1{fill:url(#linear-gradient);}.cls-2{fill:#fff;}</style><linearGradient id="linear-gradient" x1="14.9" y1="30.79" x2="29.11" y2="13.19" gradientUnits="userSpaceOnUse"><stop offset="0.14" stop-color="#114778"/><stop offset="0.35" stop-color="#0b689f"/><stop offset="0.62" stop-color="#058eca"/><stop offset="0.83" stop-color="#01a5e5"/><stop offset="0.96" stop-color="#00aeef"/></linearGradient></defs><rect class="cls-1" width="44" height="44" rx="22"/><path id="C" class="cls-2" d="M25.32,1.84V7a1.3,1.3,0,0,1-.4.92L12.41,19.85h3.46a1.33,1.33,0,0,0,1-.4l8.43-8.38a1.38,1.38,0,0,1,1.88,0l8.18,7.48H28.59l-2.41-2.26-4.69,4.82a1.26,1.26,0,0,0,0,1.77l4.69,4.77,2.34-2h6.8l-8.2,7.08a1.38,1.38,0,0,1-1.84,0l-8.45-8a1.36,1.36,0,0,0-.95-.37H12.41l12.5,11.62a1.27,1.27,0,0,1,.41.93v5.55L6.66,23.49a1.73,1.73,0,0,1-.09-3Z" transform="translate(-4.1 -0.3)"/><path class="cls-2" d="M27.28,1.85v4.9a2,2,0,0,0,.6,1.42L40.05,20.53a2,2,0,0,1,0,2.85L27.88,35.58a2.06,2.06,0,0,0-.6,1.43v5.2L45.61,23.59c.75-.8,1.23-2.39.47-3.18Z" transform="translate(-4.1 -0.3)"/></svg>